<svg width="168" height="39" viewBox="0 0 168 39" fill="none" xmlns="http://www.w3.org/2000/svg">
<g clip-path="url(#clip0_255_224)">
<path d="M30.4939 19.5002C30.4939 11.4801 23.9951 4.99567 15.9999 4.99567C8.00475 4.99572 1.50588 11.4801 1.50588 19.5002C1.50598 27.5202 8.00481 34.0042 15.9999 34.0043C23.995 34.0043 30.4938 27.5203 30.4939 19.5002ZM31.9057 19.5002C31.9056 28.2694 24.7941 35.3956 15.9999 35.3956C7.20575 35.3955 0.0942147 28.2694 0.0941162 19.5002C0.0941162 10.7309 7.20569 3.60442 15.9999 3.60437C24.7942 3.60437 31.9057 10.7309 31.9057 19.5002Z" fill="#0D0B16"/>
<path fill-rule="evenodd" clip-rule="evenodd" d="M16 8.83331V10.9666C11.2872 10.9666 7.46671 14.7871 7.46671 19.5C7.46671 24.2128 11.2872 28.0333 16 28.0333V30.1666C10.109 30.1666 5.33337 25.391 5.33337 19.5C5.33337 13.6089 10.109 8.83331 16 8.83331Z" fill="#0D0B16"/>
<path d="M15.9954 14.8623C13.4354 14.8623 11.3623 16.94 11.3623 19.5C11.3623 22.06 13.4354 24.1377 15.9954 24.1377C18.56 24.1377 20.6377 22.06 20.6377 19.5C20.6377 16.94 18.56 14.8623 15.9954 14.8623ZM17.5258 21.6844L15.5362 19.6901V17.1812H16.4638V19.3099L18.1844 21.0305L17.5258 21.6844Z" fill="#0D0B16"/>
</g>
<path d="M43.875 15.0312C43.875 13.875 44.1615 12.8281 44.7344 11.8906C45.3073 10.9427 46.0729 10.1875 47.0312 9.625C47.9896 9.0625 49.0521 8.78125 50.2188 8.78125H61.8594V12.0625H50.2188C49.375 12.0625 48.6562 12.3542 48.0625 12.9375C47.4688 13.5104 47.1719 14.2083 47.1719 15.0312V24.8125C47.1719 25.6042 47.4688 26.2865 48.0625 26.8594C48.6562 27.4219 49.375 27.7031 50.2188 27.7031H61.8594V31H50.2188C49.0521 31 47.9896 30.724 47.0312 30.1719C46.0729 29.6198 45.3073 28.8802 44.7344 27.9531C44.1615 27.0156 43.875 25.9844 43.875 24.8594V15.0312ZM65.4688 8.78125H68.7656V14.8125H73.8594C74.9844 14.8125 76.0052 15.0781 76.9219 15.6094C77.849 16.1302 78.5833 16.8333 79.125 17.7188C79.6771 18.5938 79.9531 19.5677 79.9531 20.6406V31H76.6562V20.6875C76.6562 20 76.375 19.401 75.8125 18.8906C75.2604 18.3698 74.6094 18.1094 73.8594 18.1094H68.7656V31H65.4688V8.78125ZM83.7188 19.3438C83.7188 18.5104 83.9271 17.75 84.3438 17.0625C84.7708 16.375 85.3333 15.8281 86.0312 15.4219C86.7396 15.0156 87.5208 14.8125 88.375 14.8125H91.9844V18.0938H88.375C88 18.0938 87.6771 18.224 87.4062 18.4844C87.1458 18.7344 87.0156 19.0417 87.0156 19.4062V31H83.7188V19.3438ZM94.5 20.6562C94.5 19.5833 94.7604 18.6042 95.2812 17.7188C95.8125 16.8333 96.5208 16.1302 97.4062 15.6094C98.2917 15.0781 99.2708 14.8125 100.344 14.8125H103.875C104.948 14.8125 105.927 15.0781 106.812 15.6094C107.698 16.1302 108.401 16.8333 108.922 17.7188C109.453 18.6042 109.719 19.5833 109.719 20.6562V25.1562C109.719 26.2292 109.453 27.2083 108.922 28.0938C108.401 28.9792 107.698 29.6875 106.812 30.2188C105.927 30.7396 104.948 31 103.875 31H100.344C99.2708 31 98.2917 30.7396 97.4062 30.2188C96.5208 29.6875 95.8125 28.9792 95.2812 28.0938C94.7604 27.2083 94.5 26.2292 94.5 25.1562V20.6562ZM97.7969 25.125C97.7969 25.8333 98.0469 26.4427 98.5469 26.9531C99.0469 27.4531 99.6458 27.7031 100.344 27.7031H103.875C104.583 27.7031 105.182 27.4531 105.672 26.9531C106.172 26.4427 106.422 25.8333 106.422 25.125V20.6875C106.422 19.9792 106.172 19.375 105.672 18.875C105.182 18.3646 104.583 18.1094 103.875 18.1094H100.344C99.6458 18.1094 99.0469 18.3646 98.5469 18.875C98.0469 19.375 97.7969 19.9792 97.7969 20.6875V25.125ZM113.312 18.0938C113.312 17.1875 113.635 16.4167 114.281 15.7812C114.938 15.1354 115.724 14.8125 116.641 14.8125H122.344C123.417 14.8125 124.396 15.0781 125.281 15.6094C126.167 16.1302 126.87 16.8333 127.391 17.7188C127.922 18.6042 128.188 19.5833 128.188 20.6562V31H124.891V20.7031C124.891 19.974 124.641 19.3542 124.141 18.8438C123.651 18.3333 123.052 18.0781 122.344 18.0781H116.609V31H113.312V18.0938ZM131.938 14.8125H135.234V25.1094C135.234 25.8385 135.484 26.4583 135.984 26.9688C136.484 27.4792 137.083 27.7344 137.781 27.7344H143.516V14.8125H146.812V27.7188C146.812 28.625 146.49 29.401 145.844 30.0469C145.198 30.6823 144.411 31 143.484 31H137.781C136.708 31 135.729 30.7396 134.844 30.2188C133.958 29.6875 133.25 28.9792 132.719 28.0938C132.198 27.2083 131.938 26.2292 131.938 25.1562V14.8125ZM150.406 19.3594C150.406 18.5156 150.615 17.75 151.031 17.0625C151.458 16.375 152.021 15.8281 152.719 15.4219C153.427 15.0156 154.208 14.8125 155.062 14.8125H164.562V18.1094H155.062C154.688 18.1094 154.365 18.2344 154.094 18.4844C153.833 18.724 153.703 19.0156 153.703 19.3594V19.75C153.703 20.1042 153.833 20.4062 154.094 20.6562C154.365 20.9062 154.688 21.0312 155.062 21.0312H160.969C161.823 21.0312 162.599 21.2396 163.297 21.6562C164.005 22.0625 164.568 22.6094 164.984 23.2969C165.401 23.9844 165.609 24.75 165.609 25.5938V26.4375C165.609 27.2708 165.401 28.0365 164.984 28.7344C164.568 29.4219 164.005 29.974 163.297 30.3906C162.599 30.7969 161.823 31 160.969 31H151.141V27.7031H160.969C161.344 27.7031 161.661 27.5781 161.922 27.3281C162.193 27.0781 162.328 26.776 162.328 26.4219V25.6094C162.328 25.2448 162.193 24.9375 161.922 24.6875C161.661 24.4375 161.344 24.3125 160.969 24.3125H155.062C154.208 24.3125 153.427 24.1094 152.719 23.7031C152.021 23.2865 151.458 22.7344 151.031 22.0469C150.615 21.349 150.406 20.5833 150.406 19.75V19.3594Z" fill="#0D0B16"/>
<defs>
<clipPath id="clip0_255_224">
<rect width="32" height="32" fill="white" transform="translate(0 3.5)"/>
</clipPath>
</defs>
</svg>
